<?xml version="1.0" encoding="UTF-8"?>
<svg width="154px" height="42px" viewBox="0 0 154 42" version="1.1" xmlns="http://www.w3.org/2000/svg" xmlns:xlink="http://www.w3.org/1999/xlink">
    <!-- Generator: Sketch 61.2 (89653) - https://sketch.com -->
    <title>Foodly_Logo_Large_Orange</title>
    <desc>Created with Sketch.</desc>
    <g id="📱-Phone" stroke="none" stroke-width="1" fill="none" fill-rule="evenodd">
        <g id="Foodly_Logo_Large_Orange" fill="#EB5624" fill-rule="nonzero">
            <polygon id="Path" points="8.62281475 8.4922728 8.62281475 15.1989028 22.0797891 15.1989028 22.0797891 21.8621149 8.62281475 21.8621149 8.62281475 32.3136611 0 32.3136611 0 1.82905249 23.9088416 1.82905249 23.9088416 8.4922728"></polygon>
            <path d="M110.136956,0 L110.136956,32.3136611 L102.254272,32.3136611 L102.254272,29.9621774 C100.714946,31.7915262 98.406749,32.7059044 95.3296792,32.7059044 C93.1807688,32.7059044 91.2210755,32.2050024 89.4505996,31.2031985 C87.6791304,30.2014001 86.2782325,28.7715514 85.2479058,26.9136524 C84.2171676,25.0559509 83.7020865,22.9075316 83.7020865,20.4683943 C83.7020865,18.0294656 84.2173597,15.8882346 85.2479058,14.0447012 C86.2780569,12.2014751 87.6789548,10.7860991 89.4505996,9.79857306 C91.220878,8.81183171 93.1805712,8.31831288 95.3296792,8.31801657 C98.1454676,8.31801657 100.322928,9.13089678 101.862061,10.7566572 L101.862061,0 L110.136956,0 Z M100.599171,24.6271104 C101.528323,23.6259046 101.992996,22.239666 101.993188,20.4683943 C101.993188,18.7264686 101.535802,17.3618909 100.621032,16.3746611 C99.7066566,15.3879198 98.5235152,14.894401 97.0716077,14.8941046 C95.6196782,14.8941046 94.42945,15.3876235 93.500923,16.3746611 C92.5711834,17.3619896 92.1065111,18.7265674 92.1069059,20.4683943 C92.1069059,22.2395672 92.5715784,23.6258059 93.500923,24.6271104 C94.4294775,25.6289088 95.6197057,26.1298162 97.0716077,26.1298162 C98.4939718,26.1298162 99.6698261,25.6288978 100.599171,24.6271104 Z" id="Shape"></path>
            <polygon id="Path" points="115.449569 0 123.724472 0 123.724472 32.3136611 115.449569 32.3136611"></polygon>
            <path d="M153.947429,8.70993052 L143.756942,33.271737 C142.566124,36.1749539 141.11442,38.2145883 139.401829,39.3906402 C137.688245,40.566714 135.597826,41.1544629 133.130572,41.1544629 C131.852506,41.1497942 130.582514,40.9516366 129.363778,40.5667277 C128.100896,40.1745147 127.077436,39.6590441 126.2934,39.0203159 L129.167628,33.2286565 C129.653343,33.6770805 130.223103,34.0248107 130.843989,34.2517565 C131.476597,34.4945472 132.148145,34.6200596 132.825741,34.6221467 C133.60958,34.6221467 134.255589,34.4624673 134.76377,34.1431087 C135.271172,33.8229599 135.69942,33.3147764 136.048514,32.6185581 L125.944855,8.70993052 L134.437127,8.70993052 L140.229379,23.124989 L146.064745,8.70993052 L153.947429,8.70993052 Z" id="Path"></path>
            <path d="M67.9591876,34.2178781 C60.4016726,34.2178781 54.253237,28.0694425 54.253237,20.5122321 C54.253237,12.9544207 60.4017137,6.80598514 67.9591876,6.80598514 C75.5166615,6.80598514 81.6654263,12.9544619 81.6654263,20.5122321 C81.6654263,28.0694425 75.5166944,34.2178781 67.9591876,34.2178781 Z M67.9591876,9.83029492 C62.0598803,9.83029492 57.2775468,14.6126284 57.2775468,20.5119358 C57.2775468,26.4112431 62.0598803,31.1935766 67.9591876,31.1935766 C73.8492143,31.1935766 78.6411247,26.401946 78.6411247,20.5122321 C78.6345429,14.6154895 73.8559301,9.83687679 67.9591876,9.83029492 Z" id="Shape"></path>
            <path d="M72.9974239,16.9284768 C72.359113,16.0319877 71.4938178,15.3214286 70.4902941,14.8696836 L61.77489,20.4477595 C61.774676,20.4693985 61.7716469,20.4902885 61.7716469,20.5120016 C61.7714666,21.5912866 62.0552366,22.6516253 62.5944647,23.5865528 L72.9974239,16.9284768 Z" id="Path"></path>
            <path d="M69.7898616,14.6001054 C68.0504064,14.0625918 66.1624904,14.3186599 64.6290581,15.3000927 C63.0956257,16.2815254 62.0724154,17.8886465 61.8320124,19.6933159 L69.7898616,14.6001054 Z" id="Path"></path>
            <path d="M74.1435346,20.5779064 C74.1437568,20.555683 74.146827,20.5341921 74.146827,20.5119358 C74.1470054,19.4326168 73.8632058,18.3722479 73.323927,17.4373105 L62.9210583,24.0953618 C63.559549,24.9921973 64.4251929,25.7029733 65.4291347,26.1547312 L74.1435346,20.5779064 Z" id="Path"></path>
            <path d="M66.1298635,26.4240954 C67.8689045,26.9611786 69.7562249,26.7050884 71.2892677,25.7240166 C72.8223105,24.7429447 73.8454574,23.1364794 74.086264,21.3323911 L66.1298635,26.4240954 Z" id="Path"></path>
            <path d="M38.9258582,34.2178781 C31.3683431,34.2178781 25.2199075,28.0694425 25.2199075,20.5122321 C25.2199075,12.9544207 31.3683843,6.80598514 38.9258582,6.80598514 C46.483332,6.80598514 52.6320968,12.9544619 52.6320968,20.5122321 C52.6320968,28.0694425 46.4833732,34.2178781 38.9258582,34.2178781 Z M38.9258582,9.83029492 C33.0265508,9.83029492 28.2442173,14.6126284 28.2442173,20.5119358 C28.2442173,26.4112431 33.0265508,31.1935766 38.9258582,31.1935766 C44.8158849,31.1935766 49.6077953,26.401946 49.6077953,20.5122321 C49.6012134,14.6154895 44.8226007,9.83687679 38.9258582,9.83029492 Z" id="Shape"></path>
            <path d="M35.4756655,18.3148801 C34.6836297,19.0478587 33.7529282,19.6149361 32.7383752,19.9827141 L32.7383752,24.2559136 C34.3296414,23.8402256 35.8170869,23.0981986 37.106263,22.0769494 C40.1281693,19.6577337 41.1396061,16.2914962 41.479542,14.3243705 L37.819264,14.3243705 C37.4369401,15.8517748 36.6234069,17.2370001 35.4756655,18.3148801 L35.4756655,18.3148801 Z" id="Path"></path>
            <path d="M35.0639645,17.8718687 C36.0889936,16.9096998 36.8262634,15.6814392 37.1933787,14.324354 L34.9797542,14.324354 C34.3853051,14.324354 33.8152015,14.5604906 33.3948609,14.9808281 C32.9745203,15.4011656 32.7383752,15.9712675 32.7383752,16.5657166 L32.7383752,19.3359223 C33.5974195,18.9958804 34.3859496,18.4994685 35.0639645,17.8718687 L35.0639645,17.8718687 Z" id="Path"></path>
            <path d="M42.3858044,23.1260096 C43.5257732,21.8336419 44.4471282,20.3638498 45.1135222,18.7746166 L45.1135222,16.5657166 C45.1135222,15.3278559 44.1100286,14.3243705 42.8721678,14.3243705 L42.0985462,14.3243705 C41.753285,16.4804363 40.6976483,19.9765244 37.4843079,22.5495014 C36.0983728,23.6480547 34.4949212,24.439724 32.7800811,24.8721112 C32.9782868,25.9310603 33.9024158,26.6988025 34.9797542,26.6995422 L37.8076914,26.6995422 C39.5379664,25.7960922 41.0892995,24.5851698 42.3858044,23.1260096 L42.3858044,23.1260096 Z" id="Path"></path>
            <path d="M42.8388492,23.5264919 C41.7372523,24.7680112 40.4559375,25.8375561 39.0375349,26.6995422 L42.8721843,26.6995422 C44.1100464,26.6995422 45.1135386,25.6960499 45.1135386,24.4581878 L45.1135386,20.2072117 C44.4941034,21.4026179 43.7301512,22.5173949 42.8388492,23.5264919 L42.8388492,23.5264919 Z" id="Path"></path>
        </g>
    </g>
</svg>